<svg xmlns="http://www.w3.org/2000/svg" width="800" height="600" style="background: white;">
        <line x1="730.7370411981228" y1="152.4444194338935" x2="114.99381515184241" y2="234.6092467768177" stroke="#ccc" stroke-width="1"/>
<line x1="730.7370411981228" y1="152.4444194338935" x2="748.1399236980121" y2="301.62256093986514" stroke="#ccc" stroke-width="1"/>
<line x1="730.7370411981228" y1="152.4444194338935" x2="501.81241402439144" y2="461.2929301390474" stroke="#ccc" stroke-width="1"/>
<line x1="114.99381515184241" y1="234.6092467768177" x2="647.5131883347533" y2="304.79194898228803" stroke="#ccc" stroke-width="1"/>
<line x1="114.99381515184241" y1="234.6092467768177" x2="247.5180890359903" y2="548.5114663487219" stroke="#ccc" stroke-width="1"/>
<line x1="748.1399236980121" y1="301.62256093986514" x2="580.2127711215777" y2="486.5328096567714" stroke="#ccc" stroke-width="1"/>
<line x1="748.1399236980121" y1="301.62256093986514" x2="747.4822480683289" y2="439.6811963495404" stroke="#ccc" stroke-width="1"/>
<line x1="402.68258417101697" y1="382.2630385267982" x2="617.5291944473405" y2="429.89081084921025" stroke="#ccc" stroke-width="1"/>
<line x1="261.404746917513" y1="196.4487532424243" x2="25.480742557964575" y2="47.44670995000113" stroke="#ccc" stroke-width="1"/>
<line x1="261.404746917513" y1="196.4487532424243" x2="687.0542134688708" y2="250.05241875808386" stroke="#ccc" stroke-width="1"/>
<line x1="359.15083386147114" y1="212.05862628563563" x2="25.480742557964575" y2="47.44670995000113" stroke="#ccc" stroke-width="1"/>
<line x1="359.15083386147114" y1="212.05862628563563" x2="317.5824958061429" y2="598.9621596279267" stroke="#ccc" stroke-width="1"/>
<line x1="617.5291944473405" y1="429.89081084921025" x2="195.07936640526998" y2="23.271957440356438" stroke="#ccc" stroke-width="1"/>
<line x1="758.9017391808162" y1="22.305700615415724" x2="25.480742557964575" y2="47.44670995000113" stroke="#ccc" stroke-width="1"/>
<line x1="758.9017391808162" y1="22.305700615415724" x2="129.52161293724797" y2="501.3819757627036" stroke="#ccc" stroke-width="1"/>
<line x1="25.480742557964575" y1="47.44670995000113" x2="642.3721107702801" y2="250.2251833378281" stroke="#ccc" stroke-width="1"/>
<line x1="25.480742557964575" y1="47.44670995000113" x2="669.761169637444" y2="597.9435773452143" stroke="#ccc" stroke-width="1"/>
<line x1="398.12425505267015" y1="95.7431504986538" x2="580.2127711215777" y2="486.5328096567714" stroke="#ccc" stroke-width="1"/>
<line x1="398.12425505267015" y1="95.7431504986538" x2="127.46270856128659" y2="341.8874118018887" stroke="#ccc" stroke-width="1"/>
<line x1="193.41987757250791" y1="132.79482207795436" x2="127.46270856128659" y2="341.8874118018887" stroke="#ccc" stroke-width="1"/>
<line x1="193.41987757250791" y1="132.79482207795436" x2="669.761169637444" y2="597.9435773452143" stroke="#ccc" stroke-width="1"/>
<line x1="559.9081115442642" y1="438.02020932925683" x2="747.4822480683289" y2="439.6811963495404" stroke="#ccc" stroke-width="1"/>
<line x1="559.9081115442642" y1="438.02020932925683" x2="501.81241402439144" y2="461.2929301390474" stroke="#ccc" stroke-width="1"/>
<line x1="247.5180890359903" y1="548.5114663487219" x2="789.5210266983628" y2="210.6700258333333" stroke="#ccc" stroke-width="1"/>
<line x1="129.52161293724797" y1="501.3819757627036" x2="70.57864212369616" y2="112.04533895229206" stroke="#ccc" stroke-width="1"/>
<line x1="129.52161293724797" y1="501.3819757627036" x2="195.07936640526998" y2="23.271957440356438" stroke="#ccc" stroke-width="1"/>
<line x1="70.57864212369616" y1="112.04533895229206" x2="139.73685127671817" y2="0.6530293942774268" stroke="#ccc" stroke-width="1"/>
<line x1="139.73685127671817" y1="0.6530293942774268" x2="669.761169637444" y2="597.9435773452143" stroke="#ccc" stroke-width="1"/>
<line x1="647.5131883347533" y1="304.79194898228803" x2="114.99381515184241" y2="234.6092467768177" stroke="#ccc" stroke-width="1"/>
<line x1="687.0542134688708" y1="250.05241875808386" x2="127.46270856128659" y2="341.8874118018887" stroke="#ccc" stroke-width="1"/>
<line x1="317.5824958061429" y1="598.9621596279267" x2="139.73685127671817" y2="0.6530293942774268" stroke="#ccc" stroke-width="1"/>
<line x1="747.4822480683289" y1="439.6811963495404" x2="559.9081115442642" y2="438.02020932925683" stroke="#ccc" stroke-width="1"/>
<line x1="669.761169637444" y1="597.9435773452143" x2="139.73685127671817" y2="0.6530293942774268" stroke="#ccc" stroke-width="1"/>
<line x1="580.2127711215777" y1="486.5328096567714" x2="398.12425505267015" y2="95.7431504986538" stroke="#ccc" stroke-width="1"/>
        <circle cx="730.7370411981228" cy="152.4444194338935" r="5" fill="#4285f4"/>
            <text x="738.7370411981228" y="152.4444194338935" font-size="10" fill="#333">Blantyre</text>
<circle cx="114.99381515184241" cy="234.6092467768177" r="5" fill="#4285f4"/>
            <text x="122.99381515184241" y="234.6092467768177" font-size="10" fill="#333">Chikwawa</text>
<circle cx="748.1399236980121" cy="301.62256093986514" r="5" fill="#4285f4"/>
            <text x="756.1399236980121" y="301.62256093986514" font-size="10" fill="#333">Chiradzulu</text>
<circle cx="402.68258417101697" cy="382.2630385267982" r="5" fill="#4285f4"/>
            <text x="410.68258417101697" y="382.2630385267982" font-size="10" fill="#333">Chitipa</text>
<circle cx="261.404746917513" cy="196.4487532424243" r="5" fill="#4285f4"/>
            <text x="269.404746917513" y="196.4487532424243" font-size="10" fill="#333">Dedza</text>
<circle cx="359.15083386147114" cy="212.05862628563563" r="5" fill="#4285f4"/>
            <text x="367.15083386147114" y="212.05862628563563" font-size="10" fill="#333">Dowa</text>
<circle cx="617.5291944473405" cy="429.89081084921025" r="5" fill="#4285f4"/>
            <text x="625.5291944473405" y="429.89081084921025" font-size="10" fill="#333">Karonga</text>
<circle cx="758.9017391808162" cy="22.305700615415724" r="5" fill="#4285f4"/>
            <text x="766.9017391808162" y="22.305700615415724" font-size="10" fill="#333">Kasungu</text>
<circle cx="25.480742557964575" cy="47.44670995000113" r="5" fill="#4285f4"/>
            <text x="33.480742557964575" y="47.44670995000113" font-size="10" fill="#333">Lilongwe</text>
<circle cx="398.12425505267015" cy="95.7431504986538" r="5" fill="#4285f4"/>
            <text x="406.12425505267015" y="95.7431504986538" font-size="10" fill="#333">Machinga</text>
<circle cx="193.41987757250791" cy="132.79482207795436" r="5" fill="#4285f4"/>
            <text x="201.41987757250791" y="132.79482207795436" font-size="10" fill="#333">Mangochi</text>
<circle cx="642.3721107702801" cy="250.2251833378281" r="5" fill="#4285f4"/>
            <text x="650.3721107702801" y="250.2251833378281" font-size="10" fill="#333">Mchinji</text>
<circle cx="559.9081115442642" cy="438.02020932925683" r="5" fill="#4285f4"/>
            <text x="567.9081115442642" y="438.02020932925683" font-size="10" fill="#333">Mulanje</text>
<circle cx="247.5180890359903" cy="548.5114663487219" r="5" fill="#4285f4"/>
            <text x="255.5180890359903" y="548.5114663487219" font-size="10" fill="#333">Mwanza</text>
<circle cx="129.52161293724797" cy="501.3819757627036" r="5" fill="#4285f4"/>
            <text x="137.52161293724797" y="501.3819757627036" font-size="10" fill="#333">Mzimba</text>
<circle cx="789.5210266983628" cy="210.6700258333333" r="5" fill="#4285f4"/>
            <text x="797.5210266983628" y="210.6700258333333" font-size="10" fill="#333">Neno</text>
<circle cx="70.57864212369616" cy="112.04533895229206" r="5" fill="#4285f4"/>
            <text x="78.57864212369616" y="112.04533895229206" font-size="10" fill="#333">Nkhata Bay</text>
<circle cx="139.73685127671817" cy="0.6530293942774268" r="5" fill="#4285f4"/>
            <text x="147.73685127671817" y="0.6530293942774268" font-size="10" fill="#333">Nkhotakota</text>
<circle cx="647.5131883347533" cy="304.79194898228803" r="5" fill="#4285f4"/>
            <text x="655.5131883347533" y="304.79194898228803" font-size="10" fill="#333">Nsanje</text>
<circle cx="687.0542134688708" cy="250.05241875808386" r="5" fill="#4285f4"/>
            <text x="695.0542134688708" y="250.05241875808386" font-size="10" fill="#333">Ntcheu</text>
<circle cx="317.5824958061429" cy="598.9621596279267" r="5" fill="#4285f4"/>
            <text x="325.5824958061429" y="598.9621596279267" font-size="10" fill="#333">Ntchisi</text>
<circle cx="747.4822480683289" cy="439.6811963495404" r="5" fill="#4285f4"/>
            <text x="755.4822480683289" y="439.6811963495404" font-size="10" fill="#333">Phalombe</text>
<circle cx="195.07936640526998" cy="23.271957440356438" r="5" fill="#4285f4"/>
            <text x="203.07936640526998" y="23.271957440356438" font-size="10" fill="#333">Rumphi</text>
<circle cx="669.761169637444" cy="597.9435773452143" r="5" fill="#4285f4"/>
            <text x="677.761169637444" y="597.9435773452143" font-size="10" fill="#333">Salima</text>
<circle cx="501.81241402439144" cy="461.2929301390474" r="5" fill="#4285f4"/>
            <text x="509.81241402439144" y="461.2929301390474" font-size="10" fill="#333">Thyolo</text>
<circle cx="580.2127711215777" cy="486.5328096567714" r="5" fill="#4285f4"/>
            <text x="588.2127711215777" y="486.5328096567714" font-size="10" fill="#333">Zomba</text>
<circle cx="127.46270856128659" cy="341.8874118018887" r="5" fill="#4285f4"/>
            <text x="135.4627085612866" y="341.8874118018887" font-size="10" fill="#333">Balaka</text>
<circle cx="279.06750453975764" cy="375.2318435936827" r="5" fill="#4285f4"/>
            <text x="287.06750453975764" y="375.2318435936827" font-size="10" fill="#333">Likoma</text>
        </svg>